<svg xmlns="http://www.w3.org/2000/svg" width="18" height="18" viewBox="0 0 18 18">
  <g id="discount_1_" data-name="discount (1)" transform="translate(-0.01 0)">
    <path id="Path_673" data-name="Path 673" d="M17.183,9l.79-2.06A.563.563,0,0,0,17.8,6.3L16.09,4.913l-.346-2.179a.562.562,0,0,0-.468-.467L13.1,1.921,11.709.208a.563.563,0,0,0-.638-.171L9.01.828,6.951.038a.561.561,0,0,0-.638.171L4.924,1.922l-2.179.346a.564.564,0,0,0-.467.467L1.932,4.914.219,6.3a.563.563,0,0,0-.171.638L.837,9l-.79,2.06a.561.561,0,0,0,.171.638l1.713,1.387.346,2.179a.562.562,0,0,0,.467.468l2.179.346L6.313,17.79a.56.56,0,0,0,.639.171l2.059-.789,2.06.79a.563.563,0,0,0,.639-.172L13.1,16.078l2.179-.346a.564.564,0,0,0,.468-.468l.346-2.179L17.8,11.7a.561.561,0,0,0,.171-.638Z" transform="translate(0 0)" fill="#fff"/>
    <g id="Group_60" data-name="Group 60" transform="translate(4.96 3.6)">
      <path id="Path_674" data-name="Path 674" d="M162.047,132.085a2.025,2.025,0,1,1,2.025-2.025A2.027,2.027,0,0,1,162.047,132.085Zm0-2.7a.675.675,0,1,0,.675.675A.675.675,0,0,0,162.047,129.385Z" transform="translate(-160.022 -128.034)" fill="#e5b826"/>
      <path id="Path_675" data-name="Path 675" d="M258.047,292.085a2.025,2.025,0,1,1,2.025-2.025A2.027,2.027,0,0,1,258.047,292.085Zm0-2.7a.675.675,0,1,0,.675.675A.677.677,0,0,0,258.047,289.385Z" transform="translate(-251.972 -281.285)" fill="#e5b826"/>
      <path id="Path_676" data-name="Path 676" d="M160.711,138.817a.675.675,0,0,1-.548-1.068l6.749-9.449a.675.675,0,0,1,1.1.784l-6.749,9.449A.678.678,0,0,1,160.711,138.817Z" transform="translate(-160.036 -128.017)" fill="#e5b826"/>
    </g>
  </g>
</svg>
