<svg xmlns="http://www.w3.org/2000/svg" xmlns:xlink="http://www.w3.org/1999/xlink" width="16" height="18.914" viewBox="0 0 16 18.914">
  <defs>
    <clipPath id="clip-path">
      <rect width="16" height="18.914" fill="none"/>
    </clipPath>
  </defs>
  <g id="Heart" clip-path="url(#clip-path)">
    <rect id="Rectangle_1450" data-name="Rectangle 1450" width="16" height="16" transform="translate(0 2.914)" fill="none"/>
    <path id="Path" d="M14.12,14.485a.458.458,0,0,1-.426.29h-1.8a9.388,9.388,0,0,1-3.05,2.346.488.488,0,0,1-.155.041c-.334.026-.579.04-.747.04a6.247,6.247,0,0,1-1.584-.237l-.372.188a.457.457,0,0,1-.207.049H5.243C3.392,17.2,3,16.3,3,15.551c0-.023,0-.046,0-.073a1.508,1.508,0,0,1-1.472-1.595c0-.065,0-.145.012-.241a1.711,1.711,0,0,1-.773-.515,1.5,1.5,0,0,1-.33-.994A1.812,1.812,0,0,1,.7,11.25a2.676,2.676,0,0,1-.7-1.8,2.253,2.253,0,0,1,1.334-2A6.948,6.948,0,0,1,4.7,6.737h.108c-.121-.718.4-.66.056-1.34l-.215-.372A5.215,5.215,0,0,1,3.9,2.812,2.651,2.651,0,0,1,6.235.048L6.381.013a.464.464,0,0,1,.35.055.456.456,0,0,1,.2.287l.626,2.758,2.519,2.67c.177.2-.319-.219.169.428l.385.506a5.379,5.379,0,0,0,.834.984,1.252,1.252,0,0,0,.7.151h1.458a.455.455,0,0,1,.417.27,7.76,7.76,0,0,1,.7,3.183A8.714,8.714,0,0,1,14.12,14.485Z" transform="translate(1.256)" fill="none" stroke="#56e6d2" stroke-miterlimit="10" stroke-width="2"/>
  </g>
</svg>
